<svg width="304" height="50" viewBox="0 0 304 50" fill="none" xmlns="http://www.w3.org/2000/svg">
<g clip-path="url(#clip0_39_2)">
<g filter="url(#filter0_dd_39_2)">
<path d="M289.732 2H14C7.37258 2 2 7.37258 2 14V34C2 40.6274 7.37258 46 14 46H289.732C296.359 46 301.732 40.6274 301.732 34V14C301.732 7.37258 296.359 2 289.732 2Z" fill="black"/>
<path d="M29.461 29.0001H27.404C25.925 29.0001 24.718 27.9971 24.327 26.4841C23.732 27.3341 23.001 27.7591 22.151 27.7591C19.975 27.7591 18.632 26.1271 18.632 23.7641C18.632 21.2141 19.975 19.6331 22.151 19.6331H26.35V25.0221C26.35 26.3481 26.979 27.0621 28.254 27.0621H29.461V29.0001ZM24.378 23.5771V21.1121H22.661C21.335 21.1121 20.519 22.1661 20.519 23.7471C20.519 25.0561 21.25 26.1781 22.389 26.1781C23.63 26.1781 24.378 25.0221 24.378 23.5771ZM22.984 18.2561H21.114V16.3521H22.984V18.2561ZM26.197 18.2561H24.327V16.3521H26.197V18.2561ZM36.7752 29.0001H28.9382V27.0621H30.7572C31.3182 27.0621 31.7092 26.8751 31.9132 26.4841C32.0492 26.2291 32.1172 25.7871 32.1172 25.1921V21.2821H34.0042V25.0901C34.0042 26.0931 33.8682 26.7391 33.5792 27.0621H36.7752V29.0001ZM33.9362 32.7231H32.0662V30.8191H33.9362V32.7231ZM30.7232 32.7231H28.8532V30.8191H30.7232V32.7231ZM47.4281 29.0001H44.9971C44.2661 29.9861 43.2461 30.4791 41.9201 30.4791C40.6111 30.4791 39.6081 29.9861 38.8771 29.0001H36.2761V27.0621H38.1121C38.0951 26.8751 38.0951 26.6881 38.0951 26.5011C38.0951 25.3621 38.4521 24.4271 39.1491 23.6961C39.8631 22.9651 40.7811 22.5911 41.9201 22.5911C43.0591 22.5911 43.9771 22.9651 44.6741 23.7301C45.3711 24.4951 45.7281 25.4301 45.7281 26.5691V27.0621H47.4281V29.0001ZM43.7731 26.5521C43.7731 25.9571 43.6201 25.4301 43.3141 25.0051C42.9571 24.5461 42.4641 24.3081 41.8691 24.3081C41.2911 24.3081 40.8321 24.5291 40.4921 24.9881C40.2031 25.3791 40.0501 25.8891 40.0501 26.4841C40.0501 27.7081 40.7981 28.7111 41.9711 28.7111C42.5491 28.7111 43.0081 28.4901 43.3311 28.0651C43.6201 27.6741 43.7731 27.1641 43.7731 26.5521ZM55.5047 19.6671H53.6517V17.7801H55.5047V19.6671ZM52.2747 19.6671H50.4217V17.7801H52.2747V19.6671ZM56.7797 25.0901C56.7797 27.3341 55.2497 29.0001 52.9717 29.0001H46.9197V27.0621H49.6227C49.2997 26.4501 49.1297 25.7701 49.1297 25.0391C49.1297 22.7271 50.7107 21.1121 52.9717 21.1121C55.2327 21.1121 56.7797 22.8631 56.7797 25.0901ZM54.8247 25.0901C54.8247 23.7981 54.0427 22.8461 52.9037 22.8461C51.8157 22.8461 51.0847 23.6961 51.0847 25.0221C51.0847 26.2461 51.8667 27.2491 53.0057 27.2491C54.1107 27.2491 54.8247 26.3481 54.8247 25.0901ZM65.2225 29.0001H62.1795C61.8905 30.8191 60.3435 31.8221 58.0315 31.8221V30.1901C59.6125 30.1901 60.3945 29.4081 60.3945 27.7761V21.2821H62.2985V27.0621H65.2225V29.0001ZM69.4106 25.9231C69.4106 27.9801 68.4586 29.0001 66.5546 29.0001H64.5486V27.0621H66.1636C66.7926 27.0621 67.1836 26.8751 67.3706 26.5011C67.4556 26.2971 67.5066 25.8891 67.5066 25.2771V18.0351H69.4106V25.9231ZM73.0453 29.0001H71.1583V18.0181H73.0453V29.0001ZM89.044 29.0001H86.987C85.508 29.0001 84.301 27.9971 83.91 26.4841C83.315 27.3341 82.584 27.7591 81.734 27.7591C79.558 27.7591 78.215 26.1271 78.215 23.7641C78.215 21.2141 79.558 19.6331 81.734 19.6331H85.933V25.0221C85.933 26.3481 86.562 27.0621 87.837 27.0621H89.044V29.0001ZM83.961 23.5771V21.1121H82.244C80.918 21.1121 80.102 22.1661 80.102 23.7471C80.102 25.0561 80.833 26.1781 81.972 26.1781C83.213 26.1781 83.961 25.0221 83.961 23.5771ZM82.567 18.2561H80.697V16.3521H82.567V18.2561ZM85.78 18.2561H83.91V16.3521H85.78V18.2561ZM93.5191 25.9231C93.5191 27.9801 92.5672 29.0001 90.6802 29.0001H88.6742V27.0621H90.2722C90.9012 27.0621 91.2922 26.8751 91.4792 26.5011C91.5642 26.2971 91.6152 25.8891 91.6152 25.2771V21.2821H93.5191V25.9231ZM90.2552 32.7231H88.3852V30.8191H90.2552V32.7231ZM93.4682 32.7231H91.5982V30.8191H93.4682V32.7231ZM104.784 29.0001H102.472C102.217 30.8701 100.976 31.8051 98.7657 31.8051V30.3091C99.7517 30.3091 100.381 29.9011 100.653 29.0001H98.8337C96.7767 29.0001 95.1107 27.2831 95.1107 25.0391C95.1107 22.7951 96.7597 21.2651 98.9187 21.2651C100.993 21.2651 102.455 22.8631 102.455 25.0901V27.0621H104.784V29.0001ZM100.551 27.0621V24.7331C100.449 23.7301 99.8707 23.0161 98.8847 23.0161C97.7627 23.0161 97.0487 23.7981 97.0487 24.9371C97.0487 26.1101 97.8477 27.0621 98.8677 27.0621H100.551ZM118.215 29.0001H104.377V27.0621H106.723C106.434 26.3651 106.281 25.7871 106.281 25.2941C106.281 23.2541 107.658 21.9961 109.647 21.9961C111.636 21.9961 112.996 23.2541 112.996 25.2941C112.996 25.7701 112.843 26.3651 112.554 27.0621H114.798C114.815 26.8751 114.815 26.7051 114.815 26.5351C114.815 23.6791 113.064 21.1631 110.599 20.6531L110.837 18.8341C114.526 19.5821 116.702 22.7781 116.702 27.0621H118.215V29.0001ZM111.211 25.2941C111.211 24.2231 110.582 23.5091 109.647 23.5091C108.644 23.5091 108.083 24.2741 108.083 25.2941C108.083 26.3311 108.729 27.1131 109.647 27.1131C110.548 27.1131 111.211 26.3141 111.211 25.2941ZM122.585 25.9231C122.585 27.9801 121.633 29.0001 119.729 29.0001H117.723V27.0621H119.338C119.967 27.0621 120.358 26.8751 120.545 26.5011C120.63 26.2971 120.681 25.8891 120.681 25.2771V18.0351H122.585V25.9231ZM129.348 29.0001H127.121C126.203 29.0001 125.506 28.7111 125.013 28.1161C124.554 27.5721 124.333 26.8411 124.333 25.9061V18.0351H126.22V25.1411C126.22 25.9741 126.407 26.5181 126.764 26.7731C127.019 26.9601 127.512 27.0621 128.226 27.0621H129.348V29.0001ZM133.542 25.9231C133.542 27.9801 132.59 29.0001 130.703 29.0001H128.867V27.0621H130.312C130.941 27.0621 131.332 26.8751 131.519 26.5011C131.604 26.2971 131.655 25.8891 131.655 25.2771V21.2821H133.542V25.9231ZM133.525 32.7231H131.672V30.8191H133.525V32.7231ZM149.488 26.0081C149.488 29.1361 147.091 31.8221 144.133 31.8221C141.175 31.8221 138.744 29.2041 138.744 26.0081V24.3421H140.665V25.7871C140.665 28.1161 142.059 30.0031 144.133 30.0031C146.139 30.0031 147.567 28.1501 147.567 25.7871V18.0351H149.488V26.0081ZM160.764 29.0001H158.452C158.197 30.8701 156.956 31.8051 154.746 31.8051V30.3091C155.732 30.3091 156.361 29.9011 156.633 29.0001H154.814C152.757 29.0001 151.091 27.2831 151.091 25.0391C151.091 22.7951 152.74 21.2651 154.899 21.2651C156.973 21.2651 158.435 22.8631 158.435 25.0901V27.0621H160.764V29.0001ZM156.531 27.0621V24.7331C156.429 23.7301 155.851 23.0161 154.865 23.0161C153.743 23.0161 153.029 23.7981 153.029 24.9371C153.029 26.1101 153.828 27.0621 154.848 27.0621H156.531ZM172.207 27.8101V29.0001H160.239V27.0621H170.15C170.15 26.0081 169.861 25.1071 169.266 24.3591C168.569 23.4921 167.583 23.0671 166.342 23.0671C165.917 23.0671 165.441 23.1691 164.914 23.3901C164.302 23.6451 163.792 24.0021 163.384 24.4611C163.197 24.1041 162.891 23.6111 162.466 22.9651C162.993 22.4721 163.588 22.0641 164.285 21.7581C165.033 21.4351 165.781 21.2821 166.529 21.2821C167.787 21.2821 168.875 21.5881 169.793 22.2171C171.408 23.2881 172.207 25.1411 172.207 27.8101ZM167.43 19.6841H165.56V17.7971H167.43V19.6841ZM184.835 29.0001H173.802V27.0621H179.956C179.956 24.8351 179.089 23.5431 177.372 23.1691C176.845 23.0501 176.267 23.0161 175.655 23.0161V21.2821C176.59 21.2821 177.185 21.2991 177.423 21.3161C177.661 21.3331 178.001 21.4011 178.443 21.5541C180.721 22.3191 181.86 24.1551 181.877 27.0621H184.835V29.0001ZM188.842 25.9231C188.842 27.9801 187.89 29.0001 185.986 29.0001H183.98V27.0621H185.595C186.224 27.0621 186.615 26.8751 186.802 26.5011C186.887 26.2971 186.938 25.8891 186.938 25.2771V18.0351H188.842V25.9231ZM192.477 29.0001H190.59V18.0181H192.477V29.0001ZM211.162 29.0001H207.626C206.657 30.7681 204.906 31.8221 203.036 31.8221C200.078 31.8221 197.647 29.2041 197.647 26.0081V24.3421H199.568V25.7871C199.568 28.1331 200.962 30.0031 203.036 30.0031C205.042 30.0031 206.47 28.1841 206.47 25.7871V18.0351H208.391V26.0081C208.391 26.3651 208.357 26.7051 208.289 27.0621H211.162V29.0001ZM218.214 29.0001H210.377V27.0621H212.196C212.757 27.0621 213.148 26.8751 213.352 26.4841C213.488 26.2291 213.556 25.7871 213.556 25.1921V21.2821H215.443V25.0901C215.443 26.0931 215.307 26.7391 215.018 27.0621H218.214V29.0001ZM215.375 32.7231H213.505V30.8191H215.375V32.7231ZM212.162 32.7231H210.292V30.8191H212.162V32.7231ZM224.855 32.7231H222.985V30.8191H224.855V32.7231ZM231.4 29.0001H217.749V27.0621H227.575C227.575 26.0081 227.286 25.1071 226.691 24.3591C225.994 23.4921 225.008 23.0671 223.767 23.0671C223.342 23.0671 222.866 23.1691 222.339 23.3901C221.727 23.6451 221.217 24.0021 220.809 24.4611C220.622 24.1041 220.316 23.6111 219.891 22.9651C220.418 22.4721 221.013 22.0641 221.71 21.7581C222.458 21.4351 223.206 21.2821 223.954 21.2821C225.127 21.2821 226.164 21.5541 227.048 22.0981C228.595 23.0501 229.445 24.6991 229.598 27.0621H231.4V29.0001ZM230.812 29.0001V27.0621H232.546C233.515 27.0621 233.991 26.3991 233.991 25.0561V21.2821H235.912V24.9881C235.912 25.9911 235.81 26.6371 235.606 26.9601V27.0621H237.374C238.343 27.0621 238.819 26.4331 238.819 25.1751V21.2821H240.74V24.9881C240.74 26.0931 240.604 26.7901 240.349 27.0621H242.202C243.171 27.0621 243.647 26.4331 243.647 25.1921V21.2821H245.568V24.9541C245.568 25.7531 245.432 26.4501 245.143 27.0621H248.05V29.0001H230.812ZM252.463 25.9231C252.463 27.9801 251.511 29.0001 249.624 29.0001H247.618V27.0621H249.216C249.845 27.0621 250.236 26.8751 250.423 26.5011C250.508 26.2971 250.559 25.8891 250.559 25.2771V21.2821H252.463V25.9231ZM249.199 19.7181H247.329V17.8311H249.199V19.7181ZM252.412 19.7181H250.542V17.8311H252.412V19.7181Z" fill="white"/>
<mask id="mask0_39_2" style="mask-type:luminance" maskUnits="userSpaceOnUse" x="261" y="11" width="25" height="26">
<path d="M285.732 11.8857H261V36.1142H285.732V11.8857Z" fill="white"/>
</mask>
<g mask="url(#mask0_39_2)">
<path fill-rule="evenodd" clip-rule="evenodd" d="M272.569 34.9972L272.57 34.9963C272.568 34.9951 272.566 34.994 272.563 34.9925C272.557 34.9881 272.549 34.9844 272.542 34.9804C271.92 34.6376 270.888 33.629 270.822 33.5789L270.82 33.5766L270.819 33.577C270.771 33.5406 270.719 33.508 270.659 33.4851C270.315 33.3528 269.925 33.5179 269.789 33.8537C269.715 34.0387 269.735 34.2365 269.824 34.3995L269.833 34.4315C270.664 35.5269 271.984 36.0715 271.984 36.0715C272.306 36.1955 272.672 36.0407 272.799 35.7261C272.908 35.456 272.805 35.1553 272.569 34.9972Z" fill="#E82227"/>
<path fill-rule="evenodd" clip-rule="evenodd" d="M267.378 14.6676C271.35 12.5716 275.325 12.7388 279.297 14.6683C279.738 14.8828 280.191 15.0315 280.452 14.4766C280.681 13.9904 280.339 13.7252 279.924 13.515C277.817 12.4491 275.585 11.8801 273.206 11.8862C270.914 11.8675 268.775 12.4266 266.775 13.5075C266.352 13.7357 265.953 14.0112 266.271 14.5435C266.551 15.0142 266.97 14.8828 267.378 14.6676Z" fill="white"/>
<path fill-rule="evenodd" clip-rule="evenodd" d="M266.091 32.1445C265.721 32.1445 265.42 32.438 265.42 32.7989C265.42 33.1595 265.721 33.4529 266.091 33.4529C266.461 33.4529 266.761 33.1595 266.761 32.7989C266.761 32.438 266.461 32.1445 266.091 32.1445Z" fill="white"/>
<path fill-rule="evenodd" clip-rule="evenodd" d="M274.82 21.1473C274.82 20.7866 274.519 20.4932 274.149 20.4932C273.78 20.4932 273.479 20.7866 273.479 21.1473C273.479 21.5079 273.78 21.8013 274.149 21.8013C274.519 21.8013 274.82 21.5079 274.82 21.1473Z" fill="white"/>
<path fill-rule="evenodd" clip-rule="evenodd" d="M282.027 30.6523C281.657 30.6523 281.356 30.9458 281.356 31.3064C281.356 31.667 281.657 31.9605 282.027 31.9605C282.396 31.9605 282.697 31.667 282.697 31.3064C282.697 30.9458 282.396 30.6523 282.027 30.6523Z" fill="white"/>
<path fill-rule="evenodd" clip-rule="evenodd" d="M276.981 27.9971C276.611 27.9971 276.31 28.2906 276.31 28.6512C276.31 29.0118 276.611 29.3052 276.981 29.3052C277.351 29.3052 277.652 29.0118 277.652 28.6512C277.652 28.2906 277.351 27.9971 276.981 27.9971Z" fill="white"/>
<path fill-rule="evenodd" clip-rule="evenodd" d="M276.981 27.9971C276.611 27.9971 276.31 28.2906 276.31 28.6512C276.31 29.0118 276.611 29.3052 276.981 29.3052C277.351 29.3052 277.652 29.0118 277.652 28.6512C277.652 28.2906 277.351 27.9971 276.981 27.9971Z" fill="white"/>
<path fill-rule="evenodd" clip-rule="evenodd" d="M285.062 23.6953C284.692 23.6953 284.391 23.9888 284.391 24.3494C284.391 24.7102 284.692 25.0035 285.062 25.0035C285.431 25.0035 285.732 24.7102 285.732 24.3494C285.732 23.9888 285.431 23.6953 285.062 23.6953Z" fill="white"/>
<path fill-rule="evenodd" clip-rule="evenodd" d="M284.738 22.2068C284.738 21.8462 284.437 21.5527 284.067 21.5527C283.697 21.5527 283.397 21.8462 283.397 22.2068C283.397 22.5677 283.697 22.8609 284.067 22.8609C284.437 22.8609 284.738 22.5677 284.738 22.2068Z" fill="white"/>
<path fill-rule="evenodd" clip-rule="evenodd" d="M264.737 16.5445C265.107 16.5445 265.408 16.2513 265.408 15.8904C265.408 15.5298 265.107 15.2363 264.737 15.2363C264.367 15.2363 264.066 15.5298 264.066 15.8904C264.066 16.2513 264.367 16.5445 264.737 16.5445Z" fill="white"/>
<path fill-rule="evenodd" clip-rule="evenodd" d="M262.255 22.2939C262.004 22.2939 261.788 22.4303 261.673 22.6291L261.67 22.6279C261.668 22.6344 261.665 22.6407 261.663 22.6473C261.639 22.691 261.62 22.7371 261.607 22.786C261.036 24.2663 261 25.8027 261 25.8027C261 26.1635 261.301 26.4568 261.67 26.4568C261.987 26.4568 262.252 26.2407 262.322 25.9521L262.323 25.9519C262.323 25.9505 262.323 25.9493 262.323 25.9481C262.334 25.9014 262.341 25.853 262.341 25.8027C262.341 25.78 262.336 25.7582 262.334 25.736C262.423 24.2667 262.871 23.2057 262.871 23.2057C262.906 23.1267 262.925 23.0395 262.925 22.948C262.925 22.5874 262.624 22.2939 262.255 22.2939Z" fill="white"/>
<path fill-rule="evenodd" clip-rule="evenodd" d="M269.982 18.2332C264.472 20.3788 263.05 25.5124 264.547 30.5322C264.555 30.5762 264.568 30.6185 264.584 30.659C264.684 30.898 264.925 31.0673 265.205 31.0673C265.246 31.0673 265.285 31.0624 265.323 31.0558C265.404 31.0418 265.48 31.0123 265.548 30.9726C265.743 30.8582 265.876 30.6515 265.876 30.4132C265.876 30.3706 265.871 30.329 265.863 30.2883C265.861 30.2773 265.857 30.2673 265.854 30.2563C265.722 29.7825 265.595 29.3069 265.498 28.8261C264.427 23.4979 268.017 18.9278 273.285 18.9278C278.123 18.9278 281.377 21.8757 281.377 26.3107C281.377 28.0754 280.656 28.9547 279.377 28.9285C279.375 28.9285 279.373 28.9278 279.371 28.9278C279.369 28.9278 279.368 28.9282 279.366 28.9282C279.341 28.9278 279.316 28.9292 279.292 28.9278C279.288 28.9306 279.287 28.9336 279.284 28.9364C278.955 28.9788 278.701 29.2507 278.701 29.5819C278.701 29.8831 278.911 30.134 279.195 30.21C279.203 30.2135 279.212 30.2168 279.228 30.221L279.232 30.2217C279.238 30.2226 279.244 30.2231 279.249 30.224C279.263 30.2259 279.28 30.2275 279.301 30.2292C279.324 30.2313 279.347 30.236 279.371 30.236C279.38 30.236 279.388 30.2338 279.396 30.2336C279.532 30.2376 279.693 30.236 279.693 30.236C281.793 30.0737 282.548 28.367 282.548 25.9017C282.548 19.7556 275.836 15.9538 269.982 18.2332Z" fill="white"/>
<path fill-rule="evenodd" clip-rule="evenodd" d="M270.294 16.4797C270.322 16.4751 270.347 16.4647 270.374 16.458C270.347 16.4651 270.319 16.4726 270.292 16.4801L270.294 16.4797Z" fill="#00AEEF"/>
<path fill-rule="evenodd" clip-rule="evenodd" d="M270.825 15.7151C270.823 15.7044 270.819 15.6943 270.816 15.6838C270.745 15.4034 270.487 15.1943 270.178 15.1943C270.137 15.1943 270.098 15.1992 270.059 15.206C270.009 15.2203 269.96 15.2357 269.911 15.2505C268.834 15.5715 267.942 16.0093 267.027 16.5451C265.765 17.2836 264.761 18.117 263.702 19.447C263.55 19.6368 263.28 19.8864 263.102 20.1544C263.012 20.2526 262.954 20.377 262.938 20.5145C262.901 20.6936 262.943 20.8728 263.119 21.0409C263.126 21.0474 263.133 21.0533 263.139 21.0596C263.163 21.0809 263.188 21.1019 263.217 21.123C263.22 21.1253 263.223 21.127 263.226 21.1293C263.939 21.6436 264.392 20.6719 264.71 20.2708C266.381 18.1626 267.996 17.0638 270.291 16.4705C270.307 16.4665 270.322 16.4621 270.338 16.4581C270.401 16.4424 270.461 16.42 270.515 16.3884C270.707 16.2759 270.837 16.0727 270.837 15.8381C270.837 15.796 270.833 15.7551 270.825 15.7151Z" fill="white"/>
<path fill-rule="evenodd" clip-rule="evenodd" d="M283.199 19.6907C283.167 19.6337 283.129 19.5806 283.082 19.5354C280.641 16.4217 277.379 14.9154 273.471 14.8359C273.297 14.8383 272.859 14.8359 272.808 14.8359C272.439 14.8359 272.138 15.1294 272.138 15.49C272.138 15.8509 272.439 16.1441 272.808 16.1441C276.248 15.9654 279.713 17.355 282.056 20.3565C282.063 20.3679 282.073 20.3785 282.081 20.3892C282.203 20.548 282.396 20.6523 282.614 20.6523C282.983 20.6523 283.283 20.3598 283.283 20.0003C283.283 19.8879 283.251 19.7831 283.199 19.6907Z" fill="white"/>
<path fill-rule="evenodd" clip-rule="evenodd" d="M279.79 26.3127C279.78 26.1067 279.751 25.9005 279.713 25.6972C279.397 24.0042 278.42 22.4726 277.111 21.5234C277.223 21.6132 277.306 21.7367 277.342 21.8782C277.345 21.8894 277.349 21.8997 277.351 21.9109C277.359 21.9521 277.364 21.9947 277.364 22.0381C277.364 22.2809 277.229 22.4914 277.03 22.6076C276.961 22.6483 276.884 22.6782 276.801 22.6925C276.762 22.6993 276.722 22.7042 276.681 22.7042C276.545 22.7042 276.42 22.6644 276.313 22.5973C277.386 23.4836 278.293 24.9522 278.453 26.4313C278.505 26.9058 278.554 27.3906 279.157 27.3712C279.842 27.3494 279.814 26.7987 279.79 26.3127Z" fill="white"/>
<path fill-rule="evenodd" clip-rule="evenodd" d="M276.801 22.6924C276.884 22.6779 276.96 22.6482 277.03 22.6075C277.229 22.4913 277.364 22.2808 277.364 22.0381C277.364 21.9946 277.359 21.952 277.351 21.9106C277.349 21.8996 277.345 21.8894 277.342 21.8781C277.306 21.7366 277.223 21.6132 277.111 21.5234C277.103 21.5171 277.094 21.5105 277.085 21.5044C276.972 21.4219 276.833 21.3721 276.681 21.3721C276.305 21.3721 275.998 21.6707 275.998 22.0381C275.998 22.0797 276.003 22.1199 276.011 22.1592C276.019 22.2039 276.032 22.2469 276.049 22.2881C276.083 22.3685 276.133 22.4403 276.194 22.5016C276.234 22.5324 276.274 22.5645 276.313 22.5972C276.419 22.6643 276.545 22.7041 276.681 22.7041C276.722 22.7041 276.762 22.6992 276.801 22.6924Z" fill="white"/>
<path fill-rule="evenodd" clip-rule="evenodd" d="M277.085 21.5039C277.101 21.5152 277.116 21.5264 277.132 21.5377C277.117 21.5256 277.101 21.5152 277.085 21.5039Z" fill="#00AEEF"/>
<path fill-rule="evenodd" clip-rule="evenodd" d="M276.406 22.6724C276.336 22.614 276.265 22.557 276.194 22.502C276.259 22.5661 276.329 22.6236 276.406 22.6724Z" fill="#00AEEF"/>
<path fill-rule="evenodd" clip-rule="evenodd" d="M274.003 23.3518C274.001 23.3514 274 23.351 273.998 23.3506C274 23.3514 274.002 23.3518 274.004 23.3527L274.003 23.3518Z" fill="white"/>
<path fill-rule="evenodd" clip-rule="evenodd" d="M276.703 34.0639C276.333 33.9335 275.947 33.8313 275.596 33.6627C272.763 32.3021 271.239 30.0761 271.093 26.9999C271.027 25.6247 271.939 24.6595 273.214 24.6104L273.232 24.6041C273.31 24.5917 273.383 24.5662 273.449 24.5305C273.654 24.4203 273.795 24.2101 273.795 23.9662C273.795 23.7239 273.656 23.5148 273.453 23.404C273.364 23.3553 273.263 23.3254 273.154 23.3217C273.147 23.3214 273.139 23.3193 273.132 23.3193C273.117 23.3193 273.102 23.3228 273.088 23.3238C271.382 23.4309 270.008 24.653 269.784 26.3127C269.28 30.051 272.529 34.5291 276.288 35.2793C276.716 35.3649 277.103 35.342 277.235 34.8609C277.351 34.4386 277.088 34.1996 276.703 34.0639Z" fill="white"/>
<path fill-rule="evenodd" clip-rule="evenodd" d="M276.723 26.1093C276.716 26.0581 276.703 26.0095 276.686 25.9625C276.561 25.4847 276.369 24.9253 276.092 24.5463C276.072 24.5137 276.048 24.4833 276.022 24.4548C276.018 24.4494 276.014 24.4431 276.009 24.438L276.006 24.4352C275.883 24.3108 275.712 24.2324 275.522 24.2324C275.152 24.2324 274.852 24.5259 274.852 24.8865C274.852 24.9553 274.865 25.02 274.886 25.0822L274.883 25.0848C274.883 25.0848 274.887 25.0932 274.894 25.1084C274.902 25.1311 274.912 25.1529 274.923 25.1741C274.993 25.3355 275.147 25.7153 275.328 26.3025C275.337 26.3628 275.354 26.4206 275.379 26.4744C275.49 26.7138 275.736 26.8813 276.022 26.8813C276.145 26.8813 276.259 26.8478 276.36 26.7936C276.578 26.6764 276.728 26.4524 276.728 26.1923C276.728 26.1643 276.726 26.1367 276.723 26.1093Z" fill="white"/>
<path fill-rule="evenodd" clip-rule="evenodd" d="M269.517 31.7734C269.542 31.8139 269.564 31.8547 269.588 31.8951C269.567 31.853 269.544 31.8126 269.517 31.7734Z" fill="#E82227"/>
<path fill-rule="evenodd" clip-rule="evenodd" d="M268.341 32.3945C268.373 32.4633 268.41 32.5283 268.455 32.5891C268.43 32.5462 268.405 32.5029 268.383 32.4633C268.379 32.4574 268.363 32.4308 268.341 32.3945Z" fill="#E82227"/>
<path fill-rule="evenodd" clip-rule="evenodd" d="M271.714 20.6748C271.606 20.6748 271.412 20.7457 271.412 20.7457C268.646 21.5557 266.778 24.0484 266.807 27.0714C266.863 28.9623 267.694 31.2618 268.244 32.2234C268.269 32.2746 268.314 32.3494 268.341 32.3948C268.353 32.4152 268.363 32.4299 268.365 32.4332C268.377 32.4556 268.391 32.4797 268.405 32.504C268.526 32.6726 268.727 32.7839 268.954 32.7839C269.071 32.7839 269.18 32.7519 269.276 32.7002C269.484 32.5887 269.627 32.3754 269.627 32.1275C269.627 32.0244 269.601 31.9283 269.557 31.8415C269.544 31.8188 269.531 31.7959 269.517 31.7732C268.583 30.2144 268.108 28.4939 268.169 26.588C268.239 24.3694 269.82 22.5739 271.842 21.9704C271.882 21.9629 271.921 21.9509 271.958 21.9364C272.018 21.9201 272.195 21.8085 272.212 21.7618C272.318 21.6462 272.384 21.4956 272.384 21.3289C272.384 20.9683 272.083 20.6748 271.714 20.6748Z" fill="#00AC75"/>
<path fill-rule="evenodd" clip-rule="evenodd" d="M279.881 31.7033C279.789 31.6535 279.687 31.6231 279.576 31.6196C279.538 31.6234 279.501 31.6257 279.463 31.629C276.589 31.8729 274.254 29.9906 274.005 27.1883C273.962 26.7021 273.978 26.1341 273.294 26.1837C272.664 26.2298 272.659 26.8483 272.691 27.338C272.901 30.5027 275.628 32.9491 278.934 32.9837C279.149 32.9837 279.367 32.9629 279.585 32.9329C279.628 32.9271 279.67 32.9212 279.713 32.9145C279.771 32.9 279.825 32.8787 279.876 32.8511C280.085 32.7391 280.229 32.5246 280.229 32.2758C280.229 32.0291 280.087 31.816 279.881 31.7033Z" fill="white"/>
</g>
</g>
</g>
<defs>
<filter id="filter0_dd_39_2" x="0" y="0" width="303.732" height="50" filterUnits="userSpaceOnUse" color-interpolation-filters="sRGB">
<feFlood flood-opacity="0" result="BackgroundImageFix"/>
<feColorMatrix in="SourceAlpha" type="matrix" values="0 0 0 0 0 0 0 0 0 0 0 0 0 0 0 0 0 0 127 0" result="hardAlpha"/>
<feOffset dy="2"/>
<feGaussianBlur stdDeviation="1"/>
<feColorMatrix type="matrix" values="0 0 0 0 0 0 0 0 0 0 0 0 0 0 0 0 0 0 0.12 0"/>
<feBlend mode="normal" in2="BackgroundImageFix" result="effect1_dropShadow_39_2"/>
<feColorMatrix in="SourceAlpha" type="matrix" values="0 0 0 0 0 0 0 0 0 0 0 0 0 0 0 0 0 0 127 0" result="hardAlpha"/>
<feOffset/>
<feGaussianBlur stdDeviation="1"/>
<feColorMatrix type="matrix" values="0 0 0 0 0 0 0 0 0 0 0 0 0 0 0 0 0 0 0.12 0"/>
<feBlend mode="normal" in2="effect1_dropShadow_39_2" result="effect2_dropShadow_39_2"/>
<feBlend mode="normal" in="SourceGraphic" in2="effect2_dropShadow_39_2" result="shape"/>
</filter>
<clipPath id="clip0_39_2">
<rect width="304" height="50" fill="white"/>
</clipPath>
</defs>
</svg>
