<?xml version="1.0" encoding="UTF-8"?>
<svg version="1.1" xmlns="http://www.w3.org/2000/svg" width="512" height="512">
<path d="M0 0 C1.22251465 0.24943359 1.22251465 0.24943359 2.46972656 0.50390625 C51.77756733 10.87641658 93.78185743 40.46740972 121.4375 82.26416016 C139.42462857 110.27207321 148.46729738 142.74853382 148.375 175.9375 C148.37478851 176.64900208 148.37457703 177.36050415 148.37435913 178.09356689 C148.33533595 191.3662578 146.90987375 204.03055435 144 217 C143.82871582 217.804375 143.65743164 218.60875 143.48095703 219.4375 C132.91984854 268.13425383 104.26677999 312.99704247 74.42578125 352.12890625 C73.08047902 353.89438507 71.74262558 355.66526039 70.40625 357.4375 C64.96442125 364.62169677 59.25528629 371.53655716 53.38671875 378.375 C52.00745494 379.99126408 50.6422648 381.61835113 49.28125 383.25 C43.22639778 390.498184 36.94509965 397.48967021 30.49951172 404.39160156 C28.00898049 407.06298217 25.53433624 409.7488286 23.0625 412.4375 C22.20785156 413.36433594 21.35320312 414.29117187 20.47265625 415.24609375 C15.46424698 420.8241799 11.77942047 425.93736228 8.3125 432.5625 C2.1935621 443.89019674 -5.30894298 453.38818994 -14.046875 462.859375 C-15.62902608 464.59341258 -17.10946881 466.34699382 -18.5625 468.1875 C-21.73687817 471.85024404 -25.31050967 474.87034093 -29 478 C-30.50205884 479.31014331 -32.00213693 480.6225618 -33.5 481.9375 C-34.66666667 482.95833333 -35.83333333 483.97916667 -37 485 C-39.85785498 483.69173923 -42.02230016 482.26724929 -44.3203125 480.12890625 C-44.93285889 479.56059082 -45.54540527 478.99227539 -46.17651367 478.40673828 C-46.81951416 477.79813965 -47.46251465 477.18954102 -48.125 476.5625 C-48.79442627 475.93069824 -49.46385254 475.29889648 -50.15356445 474.64794922 C-64.8169512 460.68466644 -76.44215027 445.43909641 -86.07421875 427.69042969 C-90.16079119 420.22855534 -95.26440922 414.5108825 -101.33203125 408.625 C-104.13444186 405.86772339 -106.7152458 403.00321207 -109.265625 400.015625 C-111.25912581 397.69885379 -113.31554388 395.44580016 -115.375 393.1875 C-119.62514793 388.4730502 -123.64752601 383.60532498 -127.63818359 378.67089844 C-129.20163412 376.75260238 -130.78144067 374.84847135 -132.36328125 372.9453125 C-139.13863881 364.78805397 -145.75633984 356.57588163 -152 348 C-153.01686733 346.61974764 -154.03379908 345.23954274 -155.05078125 343.859375 C-162.42128204 333.80819415 -169.4064349 323.57674034 -176 313 C-176.47260254 312.24557617 -176.94520508 311.49115234 -177.43212891 310.71386719 C-210.04892825 258.3745224 -233.40469932 199.22838657 -219.72021484 136.94873047 C-212.0588287 105.58119762 -196.66869526 77.7659298 -174.38085938 54.44824219 C-173.05974143 53.06265668 -171.75598229 51.66058215 -170.453125 50.2578125 C-158.7262864 37.99793579 -144.86038209 28.11024243 -130 20 C-129.37303223 19.65630371 -128.74606445 19.31260742 -128.10009766 18.95849609 C-89.5151952 -1.90535246 -43.0306481 -9.01425535 0 0 Z " fill="#108047" transform="translate(294,3)"/>
<path d="M0 0 C36.36529433 -2.02264495 71.88026369 11.51541398 98.95751953 35.46533203 C99.93333984 36.34705078 100.90916016 37.22876953 101.91455078 38.13720703 C102.71505859 38.85392578 103.51556641 39.57064453 104.34033203 40.30908203 C128.95998618 63.57312468 141.08252284 96.53549243 143.13720703 129.73486328 C144.08406516 167.56802073 128.74241312 199.83190227 103.89892578 227.37158203 C79.27284149 253.23931763 42.97559852 266.3573009 7.76245117 267.42260742 C-27.87287547 267.88292643 -62.0207084 254.15296724 -88.08544922 230.13720703 C-89.03033203 229.27482422 -89.97521484 228.41244141 -90.94873047 227.52392578 C-115.27623706 204.29752274 -129.23347615 171.74008865 -130.28857422 138.23486328 C-130.87592993 100.762308 -117.79026002 68.37260201 -92.08544922 41.13720703 C-91.40095703 40.38826172 -90.71646484 39.63931641 -90.01123047 38.86767578 C-66.95194959 14.52969171 -32.84644151 2.16105129 0 0 Z " fill="#FDFEFE" transform="translate(250.08544921875,47.86279296875)"/>
<path d="M0 0 C13.38955176 10.70590537 21.15117924 24.3143573 23.16601562 41.33056641 C24.93707824 65.34724885 12.43167887 87.07055649 -2.57617188 104.82666016 C-4.89268164 107.47884251 -7.23527719 110.09789318 -9.62304688 112.68603516 C-11.20519795 114.42007274 -12.68564068 116.17365398 -14.13867188 118.01416016 C-17.31305004 121.6769042 -20.88668155 124.69700108 -24.57617188 127.82666016 C-26.07823071 129.13680347 -27.5783088 130.44922196 -29.07617188 131.76416016 C-30.24283854 132.78499349 -31.40950521 133.80582682 -32.57617188 134.82666016 C-35.43402685 133.51839938 -37.59847204 132.09390944 -39.89648438 129.95556641 C-40.50903076 129.38725098 -41.12157715 128.81893555 -41.75268555 128.23339844 C-42.39568604 127.6247998 -43.03868652 127.01620117 -43.70117188 126.38916016 C-44.37059814 125.7573584 -45.04002441 125.12555664 -45.72973633 124.47460938 C-67.47654089 103.76610684 -89.12424967 76.58711666 -89.95117188 45.20166016 C-89.48275412 29.09979979 -82.93526329 16.02519905 -71.57617188 4.82666016 C-71.0115625 4.25173828 -70.44695312 3.67681641 -69.86523438 3.08447266 C-51.48068615 -14.22390689 -19.94603291 -14.84830145 0 0 Z " fill="#BD1623" transform="translate(289.576171875,353.17333984375)"/>
<path d="M0 0 C1.14275391 0.27408691 1.14275391 0.27408691 2.30859375 0.55371094 C21.63669871 5.3230853 40.2494823 13.76991732 56 26 C57.22396484 26.89525391 57.22396484 26.89525391 58.47265625 27.80859375 C85.13791747 47.97013272 103.10548291 76.68511003 111 109 C111.45052734 110.76537109 111.45052734 110.76537109 111.91015625 112.56640625 C116.11821888 131.96263911 115.95866605 154.78516905 111 174 C110.83371094 174.67562988 110.66742188 175.35125977 110.49609375 176.04736328 C104.07685393 201.76592874 90.96038513 222.72314685 73 242 C72.06220703 243.01900391 72.06220703 243.01900391 71.10546875 244.05859375 C46.08966508 270.23302411 8.19093311 285.26105017 -27.6796875 286.203125 C-53.31220867 286.52685646 -76.8729618 282.27112242 -100 271 C-101.12019531 270.45472656 -102.24039063 269.90945313 -103.39453125 269.34765625 C-115.86598662 262.93850446 -126.90307112 254.70128119 -137 245 C-137.70721191 244.33943604 -137.70721191 244.33943604 -138.42871094 243.66552734 C-165.93156306 217.9431136 -180.24340687 182.26486846 -182 145 C-182.05414063 143.98550781 -182.10828125 142.97101563 -182.1640625 141.92578125 C-183.25838204 103.07743752 -165.39648845 67.58940225 -139.62109375 39.65625 C-135.38107767 35.35936336 -130.80626539 31.64264324 -126 28 C-125.46890625 27.59394531 -124.9378125 27.18789062 -124.390625 26.76953125 C-89.91647999 0.59173422 -42.39094891 -10.63691555 0 0 Z M-137.37451172 54.17626953 C-161.25762924 80.97213734 -171.81992257 115.5150505 -170 151 C-167.92540383 183.04098532 -153.7321715 210.93167329 -132 234 C-131.40058594 234.66386719 -130.80117187 235.32773437 -130.18359375 236.01171875 C-107.28557946 260.39340567 -71.83795112 273.96365414 -38.84765625 275.1875 C-0.57214794 276.02871996 34.62941447 262.22127707 62.60546875 236.32421875 C84.0986485 215.46216011 97.66123395 188.5942699 102 159 C102.13148438 158.11054688 102.26296875 157.22109375 102.3984375 156.3046875 C102.69630255 153.86541421 102.87728081 151.45438383 103 149 C103.05285156 147.94296875 103.10570312 146.8859375 103.16015625 145.796875 C104.05307743 109.92473722 90.43018432 76.26452066 66.3125 50.03125 C41.01156534 23.84772459 5.82388216 8.52733078 -30.59179688 7.76538086 C-71.78610503 7.48787429 -109.44337874 23.97064059 -137.37451172 54.17626953 Z " fill="#114329" transform="translate(290,40)"/>
<path d="M0 0 C13.38955176 10.70590537 21.15117924 24.3143573 23.16601562 41.33056641 C24.93707824 65.34724885 12.43167887 87.07055649 -2.57617188 104.82666016 C-4.89268164 107.47884251 -7.23527719 110.09789318 -9.62304688 112.68603516 C-11.20519795 114.42007274 -12.68564068 116.17365398 -14.13867188 118.01416016 C-17.31305004 121.6769042 -20.88668155 124.69700108 -24.57617188 127.82666016 C-26.07823071 129.13680347 -27.5783088 130.44922196 -29.07617188 131.76416016 C-30.24283854 132.78499349 -31.40950521 133.80582682 -32.57617188 134.82666016 C-35.43402685 133.51839938 -37.59847204 132.09390944 -39.89648438 129.95556641 C-40.50903076 129.38725098 -41.12157715 128.81893555 -41.75268555 128.23339844 C-42.39568604 127.6247998 -43.03868652 127.01620117 -43.70117188 126.38916016 C-44.37059814 125.7573584 -45.04002441 125.12555664 -45.72973633 124.47460938 C-67.47654089 103.76610684 -89.12424967 76.58711666 -89.95117188 45.20166016 C-89.48275412 29.09979979 -82.93526329 16.02519905 -71.57617188 4.82666016 C-71.0115625 4.25173828 -70.44695312 3.67681641 -69.86523438 3.08447266 C-51.48068615 -14.22390689 -19.94603291 -14.84830145 0 0 Z M-61.57617188 10.82666016 C-62.60677734 11.65423828 -62.60677734 11.65423828 -63.65820312 12.49853516 C-71.47252375 19.4910821 -77.09486436 30.13648575 -77.84960938 40.62744141 C-78.74870824 68.50883957 -62.37295488 89.6050005 -44.16992188 109.11572266 C-40.69663049 112.74593986 -37.17489019 116.32074546 -33.57617188 119.82666016 C-14.79727648 104.31365961 0.8762751 84.77466691 9.42382812 61.82666016 C9.69066406 61.13572266 9.9575 60.44478516 10.23242188 59.73291016 C13.64504538 49.00079761 12.22897702 35.80658479 7.42382812 25.82666016 C1.01117247 14.43007523 -8.37394891 6.26945978 -20.78710938 2.08056641 C-35.21929403 -1.69681044 -50.02581448 1.4103688 -61.57617188 10.82666016 Z " fill="#FDFDFD" transform="translate(289.576171875,353.17333984375)"/>
<path d="M0 0 C4.87672228 3.51298392 9.316055 7.09602695 13.5 11.4375 C17.24644439 15.27741078 21.0915739 18.90744113 25.171875 22.390625 C27.60783774 24.53510502 29.85482863 26.84243452 32.12670898 29.15795898 C33.93065456 30.93181137 35.78865604 32.58963525 37.70703125 34.23828125 C41.97248787 37.94716094 46.0876821 41.7973427 50.1875 45.6875 C55.35151472 50.56750518 60.52391495 55.4364582 65.75 60.25 C66.27255371 60.73130371 66.79510742 61.21260742 67.33349609 61.70849609 C68.88846831 63.13957385 70.44417047 64.5698544 72 66 C79.76114537 73.13889256 87.48302045 80.3168494 95.16333008 87.54272461 C100.09982264 92.17923264 105.10029176 96.73643648 110.15625 101.2421875 C110.7646875 101.82226562 111.373125 102.40234375 112 103 C112 103.33 112 103.66 112 104 C82.80380502 104.83066097 53.02266794 100.16161826 30.34765625 80.22265625 C29.18556641 79.12244141 29.18556641 79.12244141 28 78 C26.94619141 77.00806641 26.94619141 77.00806641 25.87109375 75.99609375 C6.29988707 55.81209 1.85592705 26.79023146 0 0 Z " fill="#13894C" transform="translate(137,156)"/>
<path d="M0 0 C1.87917493 24.74246988 -6.9487232 53.16231574 -23 72 C-23.721875 72.99 -24.44375 73.98 -25.1875 75 C-40.33071077 92.68336225 -67.53951508 101.08119906 -90 103 C-97.00171681 103.29579638 -103.99679423 103.18647589 -111 103 C-106.94848752 98.06550131 -102.64491973 93.62012838 -97.9375 89.3125 C-97.28410645 88.70873535 -96.63071289 88.1049707 -95.95751953 87.48291016 C-93.97476171 85.65189646 -91.98746618 83.82589988 -90 82 C-88.86281191 80.9497267 -87.72606765 79.89897257 -86.58984375 78.84765625 C-82.87555346 75.41210565 -79.15509334 71.9832765 -75.43212891 68.55712891 C-68.23292765 61.93153348 -61.07370047 55.26551034 -53.94213867 48.56713867 C-49.29622659 44.20647746 -44.62476308 39.87505515 -39.93579102 35.56079102 C-34.89103348 30.91309971 -29.89346285 26.21571637 -24.89526367 21.51806641 C-19.82154259 16.7551823 -14.70261901 12.04537681 -9.55078125 7.3671875 C-7.74880184 5.69490645 -6.00024126 3.96417493 -4.29296875 2.1953125 C-2 0 -2 0 0 0 Z " fill="#13894C" transform="translate(375,157)"/>
<path d="M0 0 C27.50729795 -1.25033172 58.85854307 4.01898393 80 23 C80.80953125 23.71671875 81.6190625 24.4334375 82.453125 25.171875 C93.48563447 35.5275434 105.59955296 52.78937934 106.11352539 68.46166992 C106.11336745 69.88461269 106.10774109 71.30756171 106.09765625 72.73046875 C106.0962413 73.48088943 106.09482635 74.23131012 106.09336853 75.00447083 C106.0877756 77.3988546 106.07522444 79.79314453 106.0625 82.1875 C106.05748408 83.81184761 106.05292134 85.43619668 106.04882812 87.06054688 C106.03780848 91.04040069 106.02054873 95.02018444 106 99 C100.9842381 94.76187561 96.14512777 90.38655241 91.375 85.875 C89.96000555 84.54257557 88.54463606 83.21054931 87.12890625 81.87890625 C86.43168457 81.22293457 85.73446289 80.56696289 85.01611328 79.89111328 C82.1289464 77.18295214 79.22375604 74.49472053 76.3125 71.8125 C75.78688477 71.32813477 75.26126953 70.84376953 74.71972656 70.34472656 C73.14686825 68.89606681 71.57345589 67.44801064 70 66 C62.50531209 59.09840022 55.03464118 52.17227081 47.59082031 45.21582031 C41.41844654 39.45048613 35.21239307 33.72214257 29 28 C25.25418454 24.54978527 21.51067356 21.09712433 17.77246094 17.63867188 C16.51094761 16.47238022 15.24847526 15.30712552 13.98535156 14.14257812 C11.90424887 12.22289864 9.82680629 10.29932564 7.75 8.375 C7.09338379 7.77059082 6.43676758 7.16618164 5.76025391 6.54345703 C5.15358887 5.97997559 4.54692383 5.41649414 3.921875 4.8359375 C3.38143555 4.33626465 2.84099609 3.8365918 2.28417969 3.32177734 C1 2 1 2 0 0 Z " fill="#107F47" transform="translate(145,148)"/>
<path d="M0 0 C-0.69480469 0.69351563 -1.38960938 1.38703125 -2.10546875 2.1015625 C-4.09417995 4.08957419 -6.07461136 6.08546277 -8.05078125 8.0859375 C-9.13798785 9.18232437 -10.2252279 10.27867808 -11.3125 11.375 C-11.84294922 11.91382813 -12.37339844 12.45265625 -12.91992188 13.0078125 C-16.46546336 16.57458477 -20.15001902 19.91579269 -23.95336914 23.20507812 C-27.40743281 26.23433687 -30.729247 29.40162962 -34.0625 32.5625 C-35.55835778 33.97551027 -37.05445617 35.38826585 -38.55078125 36.80078125 C-39.29537598 37.50412598 -40.0399707 38.2074707 -40.80712891 38.93212891 C-51.32696575 48.85230459 -61.9486899 58.66297331 -72.58398438 68.45898438 C-74.18134751 69.93060183 -75.77827569 71.40268945 -77.375 72.875 C-77.9011792 73.3599292 -78.4273584 73.8448584 -78.96948242 74.34448242 C-81.97143464 77.11485418 -84.96163008 79.89718656 -87.94140625 82.69140625 C-88.60672363 83.3148291 -89.27204102 83.93825195 -89.95751953 84.58056641 C-91.23983239 85.7831893 -92.52084278 86.9872031 -93.80029297 88.19287109 C-104.25799662 98 -104.25799662 98 -106 98 C-106.1508389 93.43267541 -106.25835098 88.86686809 -106.32958984 84.29760742 C-106.35935152 82.75080045 -106.39997627 81.20415575 -106.45263672 79.65795898 C-106.83872735 68.01089164 -105.15578289 59.52189166 -100 49 C-99.25266602 47.44962036 -99.25266602 47.44962036 -98.49023438 45.86791992 C-88.75306769 26.30052142 -71.23051752 13.69184693 -50.96337891 6.640625 C-45.06161072 4.7149548 -39.06824974 3.2905889 -33 2 C-31.94554687 1.773125 -30.89109375 1.54625 -29.8046875 1.3125 C-19.93203041 -0.50548289 -9.99605494 -0.17939082 0 0 Z " fill="#117F47" transform="translate(368,148)"/>
<path d="M0 0 C0 30.03 0 60.06 0 91 C-14.46211067 88.37052533 -25.92359836 83.64963859 -34.84765625 71.48046875 C-41.74497371 60.44815016 -44.9815267 48.62455824 -42.31640625 35.6796875 C-38.32837263 21.68020019 -31.24829545 11.495239 -18.55078125 4.2890625 C-11.9935159 0.97528369 -7.48002972 0 0 0 Z " fill="#118449" transform="translate(251,82)"/>
<path d="M0 0 C12.98420512 1.44268946 22.21541944 6.26023332 31 16 C33.31405394 19.19955873 35.23073618 22.47318933 37 26 C37.49113281 26.97839844 37.49113281 26.97839844 37.9921875 27.9765625 C42.408356 37.5238982 42.47657079 49.67119716 39.03515625 59.53125 C33.37463527 73.03105852 25.18321905 82.29594754 11.5390625 88.03515625 C7.31901964 89.54231441 4.62584346 90 0 90 C0 60.3 0 30.6 0 0 Z " fill="#14854C" transform="translate(261,82)"/>
<path d="M0 0 C5.5081291 3.45859269 8.96426111 8.89278332 11 15 C11.88978593 23.35127656 11.07697089 30.14120759 6 37 C0.41423252 42.42810469 -5.34599223 45.27513017 -13.1875 45.4375 C-20.67138505 45.30204507 -26.31637539 43.36197756 -31.87890625 38.28515625 C-37.67741425 31.8998113 -38.52239471 26.02407877 -38.37109375 17.515625 C-37.72742497 11.4177102 -35.52031022 7.35262829 -31.0625 3.19140625 C-21.63540253 -4.25385823 -10.83979466 -5.32481141 0 0 Z " fill="#FEFDFD" transform="translate(270,374)"/>
<path d="M0 0 C4.95 0 9.9 0 15 0 C15 14.85 15 29.7 15 45 C-0.18 45 -15.36 45 -31 45 C-31 40.05 -31 35.1 -31 30 C-20.77 30 -10.54 30 0 30 C0 20.1 0 10.2 0 0 Z " fill="#BC1421" transform="translate(431,307)"/>
<path d="M0 0 C4.95 0 9.9 0 15 0 C15 9.9 15 19.8 15 30 C24.82803025 29.96040272 24.82803025 29.96040272 34.65600586 29.90991211 C36.47950562 29.90616577 36.47950562 29.90616577 38.33984375 29.90234375 C39.59144287 29.89710693 40.84304199 29.89187012 42.13256836 29.88647461 C45 30 45 30 46 31 C46 35.62 46 40.24 46 45 C30.82 45 15.64 45 0 45 C0 30.15 0 15.3 0 0 Z " fill="#BC1421" transform="translate(67,307)"/>
<path d="M0 0 C15.18 0 30.36 0 46 0 C46 14.52 46 29.04 46 44 C41.05 44 36.1 44 31 44 C31 34.1 31 24.2 31 14 C20.77 14 10.54 14 0 14 C0 9.38 0 4.76 0 0 Z " fill="#BC1521" transform="translate(400,25)"/>
<path d="M0 0 C15.18 0 30.36 0 46 0 C46 4.62 46 9.24 46 14 C35.77 14 25.54 14 15 14 C15 23.9 15 33.8 15 44 C10.05 44 5.1 44 0 44 C0 29.48 0 14.96 0 0 Z " fill="#BC1521" transform="translate(67,25)"/>
</svg>
