<?xml version="1.0" encoding="UTF-8"?>
<svg id="Layer_2" data-name="Layer 2" xmlns="http://www.w3.org/2000/svg" xmlns:xlink="http://www.w3.org/1999/xlink" viewBox="0 0 398.04 453.64">
  <defs>
    <style>
      .cls-1 {
        fill: #007e46;
      }

      .cls-1, .cls-2, .cls-3, .cls-4, .cls-5, .cls-6, .cls-7 {
        stroke-width: 0px;
      }

      .cls-2 {
        fill: #12412b;
      }

      .cls-3 {
        fill: none;
      }

      .cls-8 {
        stroke: #0a412a;
        stroke-miterlimit: 10;
        stroke-width: 4px;
      }

      .cls-8, .cls-4 {
        fill: #fff;
      }

      .cls-5 {
        fill: #00743f;
      }

      .cls-9 {
        clip-path: url(#clippath);
      }

      .cls-6 {
        fill: #f40018;
      }

      .cls-7 {
        fill: #007140;
      }
    </style>
    <clipPath id="clippath">
      <path class="cls-3" d="m96.92,109.11c1.3,19.73,8.22,38.39,20.24,54.32l.14.19,3.62,4.52,44.72,55.92,3.81,4.76,4.91,6.14,25.8,32.26,25.87-32.35,8.55-10.69,45.11-56.4.3-.33,2.92-3.7c.14-.15.27-.32.38-.5,11.95-15.9,18.82-34.49,20.11-54.15H96.92Z"/>
    </clipPath>
  </defs>
  <g id="Layer_1-2" data-name="Layer 1">
    <g>
      <path class="cls-2" d="m94.71,347.99h-1.69c-10.34,0-18.31-5.51-20.9-14.61,0,17.68-16.63,31.77-35.73,31.77-20.67,0-36.4-16.52-36.4-37.7v-10.59h7.98v9.21c0,19.06,10.9,31.66,28.76,31.66,15.05,0,28.2-11.86,28.2-24.57,0-9.53-5.39-14.4-14.61-14.4v-6.67h-.11c0-.11,2.02-.21,6.07-.21,6.85,0,16.29,6.67,19.77,15.14,4.16,10.17,7.87,13.55,16.29,13.55h2.36v7.41Zm-60.78,34.2h-7.98v-9h7.98v9Zm14.72,0h-7.98v-9h7.98v9Z"/>
      <path class="cls-2" d="m115.41,341.37v6.62h-21.94c-3.02,0-3.84-2.07-3.84-3.46,0-1.24.88-3.15,3.84-3.15h21.94Z"/>
      <path class="cls-2" d="m137.36,341.37v6.62h-21.94c-3.02,0-3.84-2.07-3.84-3.46,0-1.24.88-3.15,3.84-3.15h21.94Z"/>
      <path class="cls-2" d="m159.3,341.37v6.62h-21.94c-3.02,0-3.84-2.07-3.84-3.46,0-1.24.88-3.15,3.84-3.15h21.94Z"/>
      <path class="cls-2" d="m197.16,347.99h-38.76v-7.31h7.19c4.83,0,7.98-1.48,9.55-4.34,1.12-2.01,1.68-5.4,1.68-10.27v-26.16h7.87v29.44c0,4.55-.67,8.37-2.13,11.22h14.61v7.41Zm-27.3-55.7h-7.98v-9h7.98v9Zm14.72,0h-7.98v-9h7.98v9Z"/>
      <path class="cls-2" d="m254.46,347.99h-61.79v-7.41h17.19c-2.7-4.13-4.04-9.11-4.04-14.83,0-7.52,2.02-13.55,6.18-18.32,4.38-5.19,10.56-7.73,18.54-7.73,5.84,0,10.9,1.38,15.06,4.02,4.72,2.86,7.64,6.88,8.65,12.18l-9.55.95c-1.35-7.52-6.07-11.22-14.04-11.22-5.5,0-9.55,2.12-12.25,6.46-2.02,3.49-3.03,8.05-3.03,13.66,0,6.46,1.69,11.44,5.17,14.83h33.93v7.41Z"/>
      <path class="cls-2" d="m286.48,299.91v39.08c0,17.26-7.08,25.52-23.59,26.37v-7.1c10.45,0,15.73-5.4,15.73-17.9v-40.45h7.86Z"/>
      <path class="cls-2" d="m337.03,347.99h-18.43c-3.03,10.91-10.67,16.63-23.71,17.37v-7.1c10.45,0,15.73-5.4,15.73-17.9v-40.45h7.86v40.66h18.54v7.41Zm-18.43-55.7h-7.98v-9h7.98v9Z"/>
      <path class="cls-2" d="m398.04,333.17c0,6.88-2.02,12.5-6.07,16.94-4.27,4.76-10,7.09-17.19,7.09-8.65,0-15.17-3.07-19.44-9.21h-21.68v-7.41h18.43c-.67-2.22-1.01-4.66-1.01-7.31,0-6.99,2.13-12.71,6.4-17.26s10.11-6.78,17.41-6.78,13.15,2.33,17.3,6.88c3.93,4.34,5.84,10.06,5.84,17.05Zm-9.1-.74c0-4.77-1.01-8.58-2.92-11.44-2.47-3.49-6.07-5.19-10.79-5.19-5.17,0-8.99,1.91-11.57,5.61-2.13,3.07-3.26,7.09-3.26,12.28,0,4.77,1.12,8.68,3.26,11.65,2.58,3.49,6.29,5.19,11.12,5.19,9.44,0,14.16-6.04,14.16-18.11Z"/>
    </g>
    <g>
      <path class="cls-2" d="m7.17,397.09c0-.63.16-1.19.63-1.66.47-.48,1.02-.63,1.65-.63h5.11c.71,0,1.26.08,1.65.24.39.16.63.55.87,1.11l12.98,27.17c.24.55.55.87.94.87s.71-.32.94-.87l12.98-27.17c.24-.55.47-.95.87-1.11s.94-.24,1.65-.24h5.12c.63,0,1.18.16,1.65.63.47.47.63,1.03.63,1.66v54.97c0,.47-.16.79-.47,1.11-.31.32-.63.48-1.1.48h-3.86c-.47,0-.79-.16-1.1-.48-.31-.32-.47-.63-.47-1.11v-46.97c0-.16,0-.24-.08-.24s-.08,0-.16.16l-11.25,23.45c-.39.79-.79,1.43-1.34,1.74-.55.32-1.26.55-2.2.55h-3.62c-.94,0-1.73-.24-2.2-.55-.47-.32-.94-.95-1.34-1.74l-11.25-23.45q-.08-.16-.16-.16c-.08,0-.08.08-.08.24v46.97c0,.47-.16.79-.47,1.11-.31.32-.63.48-1.1.48h-3.86c-.47,0-.79-.16-1.1-.48-.32-.32-.47-.63-.47-1.11v-54.97Z"/>
      <path class="cls-2" d="m63.19,451.82l14.56-51.56c.63-2.22,1.65-3.72,3.15-4.67s3.07-1.35,4.88-1.35,3.31.48,4.8,1.35,2.52,2.38,3.15,4.59l14.56,51.64c.08.08.08.32.08.55,0,.4-.08.63-.31.87-.24.24-.55.4-1.02.4h-4.64c-.63,0-1.1-.4-1.34-1.19l-5.11-18.22h-20.38l-5.04,18.22c-.08.32-.24.55-.55.79-.31.24-.55.4-.87.4h-4.64c-.39,0-.71-.16-.94-.4-.24-.24-.39-.47-.39-.87,0-.24,0-.47.08-.55Zm31.24-23.84l-7.16-26.06c-.24-.95-.79-1.43-1.5-1.43-.79,0-1.34.47-1.57,1.43l-7.16,26.06h17.39Z"/>
      <path class="cls-2" d="m116.15,443.66l28.17-41.27c.16-.24.24-.47.24-.63,0-.4-.24-.55-.79-.55h-26.12c-.39,0-.79-.16-1.1-.4s-.47-.55-.47-.95v-3.72c0-.4.16-.71.47-.95.31-.24.63-.4,1.1-.4h28.01c2.36,0,4.09.4,5.11,1.11,1.02.71,1.57,2.06,1.57,4.12,0,1.82-.47,3.41-1.26,4.67l-28.09,41.27c-.16.32-.24.48-.24.71,0,.32.24.48.79.48h28.25c.47,0,.79.08,1.1.32.31.24.47.55.47,1.03v3.72c0,.4-.16.71-.47,1.03-.31.32-.63.4-1.1.4h-30.3c-2.52,0-4.25-.4-5.19-1.11s-1.34-2.22-1.34-4.28c0-1.9.39-3.41,1.18-4.59Z"/>
      <path class="cls-2" d="m163.6,396.61c0-.55.16-1.03.39-1.27.24-.24.79-.4,1.5-.48,3.62-.4,8.26-.63,13.85-.63,14.71,0,22.03,5.7,22.03,17.03v.55c0,4.28-1.18,7.76-3.38,10.46-2.2,2.69-5.19,4.51-8.97,5.54l14.32,24.08c.16.24.24.47.24.71,0,.32-.08.47-.24.71-.16.24-.47.32-.79.32h-5.04c-.55,0-1.02-.08-1.26-.16s-.47-.4-.79-.87l-14.08-23.6h-2.05c-1.57,0-4.49-.08-8.66-.24v23.29c0,.4-.16.79-.39,1.11-.24.32-.63.48-1.02.48h-4.25c-.39,0-.71-.16-1.02-.48-.31-.32-.39-.63-.39-1.11v-55.45Zm15.74,26.22c5.11,0,8.81-.87,11.25-2.46s3.7-4.44,3.7-8.55v-.55c0-3.88-1.26-6.57-3.7-8.16s-6.14-2.38-11.25-2.38c-4.49,0-7.4.08-8.66.24v21.7c4.64.08,7.48.16,8.66.16Z"/>
      <path class="cls-2" d="m209,451.82l14.56-51.56c.63-2.22,1.65-3.72,3.15-4.67s3.07-1.35,4.88-1.35,3.31.48,4.8,1.35,2.52,2.38,3.15,4.59l14.56,51.64c.08.08.08.32.08.55,0,.4-.08.63-.31.87-.24.24-.55.4-1.02.4h-4.64c-.63,0-1.1-.4-1.34-1.19l-5.11-18.22h-20.38l-5.04,18.22c-.08.32-.24.55-.55.79-.31.24-.55.4-.87.4h-4.64c-.39,0-.71-.16-.94-.4-.24-.24-.39-.47-.39-.87,0-.24,0-.47.08-.55Zm31.24-23.84l-7.16-26.06c-.24-.95-.79-1.43-1.5-1.43-.79,0-1.34.47-1.57,1.43l-7.16,26.06h17.39Z"/>
      <path class="cls-2" d="m258.73,451.82l14.56-51.56c.63-2.22,1.65-3.72,3.15-4.67s3.07-1.35,4.88-1.35,3.31.48,4.8,1.35,2.52,2.38,3.15,4.59l14.56,51.64c.08.08.08.32.08.55,0,.4-.08.63-.31.87-.24.24-.55.4-1.02.4h-4.64c-.63,0-1.1-.4-1.34-1.19l-5.11-18.22h-20.38l-5.04,18.22c-.08.32-.24.55-.55.79-.31.24-.55.4-.87.4h-4.64c-.39,0-.71-.16-.94-.4-.24-.24-.39-.47-.39-.87,0-.24,0-.47.08-.55Zm31.24-23.84l-7.16-26.06c-.24-.95-.79-1.43-1.5-1.43-.79,0-1.34.47-1.57,1.43l-7.16,26.06h17.39Z"/>
      <path class="cls-2" d="m308.85,396.21c0-.4.16-.71.47-1.03.31-.32.63-.4,1.1-.4h37.85c.47,0,.79.16,1.1.4.31.24.39.55.39,1.03v3.49c0,.4-.08.71-.39.95-.31.24-.63.32-1.1.32h-15.34v51.09c0,.4-.16.79-.39,1.11-.24.32-.63.48-1.02.48h-4.33c-.39,0-.71-.16-1.02-.48-.31-.32-.39-.63-.39-1.11v-51.09h-15.34c-1.02,0-1.57-.4-1.57-1.27v-3.49Z"/>
      <path class="cls-2" d="m355.59,395.1c.24-.24.55-.32.94-.32h4.8c.24,0,.47.08.79.32.31.24.47.48.63.79l10.86,25.66c.55,1.35,1.18,2.06,1.81,2.06.31,0,.63-.16.87-.4s.55-.87.94-1.66l10.94-25.66c.32-.71.79-1.11,1.34-1.11h4.8c.39,0,.71.08.94.32.24.24.39.48.39.79s-.08.55-.24.87l-12.2,27.57c-1.26,2.77-2.68,4.51-4.25,5.23v22.5c0,.4-.08.79-.39,1.11-.31.32-.63.48-1.02.48h-4.33c-.39,0-.71-.16-1.02-.48-.31-.32-.39-.71-.39-1.11v-22.5c-1.57-.55-2.91-2.38-4.25-5.23l-12.12-27.57c-.16-.32-.24-.55-.24-.87s.16-.55.39-.79Z"/>
    </g>
    <g>
      <polygon class="cls-2" points="119.63 11.21 96.27 11.21 96.27 34.19 101.88 34.19 101.88 16.57 119.63 16.57 119.63 11.21"/>
      <polygon class="cls-2" points="279.76 11.21 303.12 11.21 303.12 34.19 297.5 34.19 297.5 16.57 279.76 16.57 279.76 11.21"/>
      <g>
        <path class="cls-7" d="m203.86,0v101.71h99.77c-.32-54.95-44.62-99.78-99.77-101.71Z"/>
        <path class="cls-7" d="m196.46,101.71V0c-55.15,1.93-99.45,46.76-99.77,101.71h99.77Z"/>
        <path class="cls-7" d="m96.92,109.11c1.3,19.73,8.22,38.39,20.24,54.32l.14.19,3.62,4.52,79.24,99.09,79.53-99.44.3-.33,2.92-3.7c.14-.15.27-.32.38-.5,11.95-15.9,18.82-34.49,20.11-54.15H96.92Z"/>
      </g>
      <polygon class="cls-2" points="119.63 189.13 96.27 189.13 96.27 166.15 101.88 166.15 101.88 183.76 119.63 183.76 119.63 189.13"/>
      <polygon class="cls-2" points="279.76 189.13 303.12 189.13 303.12 166.15 297.5 166.15 297.5 183.76 279.76 183.76 279.76 189.13"/>
      <path class="cls-8" d="m203.86,25.43c41.07,1.91,73.88,35.57,73.88,76.66s-34.8,76.74-77.58,76.74c-40.39,0-73.67-30.7-77.24-69.75l-.32-7.37c.19-40.98,33.02-74.46,74.03-76.29"/>
      <path class="cls-1" d="m262.9,81.85l-58.38,56.68s-9.7-57.36,58.38-56.68Z"/>
      <path class="cls-1" d="m138.3,81.85l58.38,56.68s9.7-57.36-58.38-56.68Z"/>
      <path class="cls-1" d="m266.82,87.61l-61.62,58.48s60.34,7.65,61.62-58.48Z"/>
      <path class="cls-1" d="m134.72,87.61l61.62,58.48s-60.34,7.65-61.62-58.48Z"/>
      <g>
        <path class="cls-5" d="m196.46,43.59c-12.72,1.8-22.51,12.73-22.51,25.95s9.79,24.15,22.51,25.95v-51.9Z"/>
        <path class="cls-5" d="m203.86,43.59v51.9c12.72-1.8,22.51-12.73,22.51-25.95s-9.79-24.15-22.51-25.95Z"/>
      </g>
      <g>
        <path class="cls-6" d="m290.54,115.17c-8.16,0-14.81-6.64-14.81-14.81s6.64-14.81,14.81-14.81,14.81,6.64,14.81,14.81-6.64,14.81-14.81,14.81Z"/>
        <path class="cls-4" d="m290.54,87.55c7.07,0,12.81,5.73,12.81,12.81s-5.73,12.81-12.81,12.81-12.81-5.73-12.81-12.81,5.73-12.81,12.81-12.81m0-4c-9.27,0-16.81,7.54-16.81,16.81s7.54,16.81,16.81,16.81,16.81-7.54,16.81-16.81-7.54-16.81-16.81-16.81h0Z"/>
      </g>
      <rect class="cls-4" x="120.71" y="101.71" width="6.64" height="7.37"/>
      <g class="cls-9">
        <g>
          <g>
            <path class="cls-6" d="m175.05,241.88l-.07-.09c-4.07-5.4-6.22-11.82-6.22-18.58,0-17.14,14.08-31.09,31.39-31.09s31.39,13.95,31.39,31.09c0,6.71-2.12,13.09-6.13,18.46-.08.11-.16.22-.25.32l-.83,1.05-.09.1-24.09,30.13-25.1-31.39Z"/>
            <path class="cls-4" d="m200.16,195.12c15.66,0,28.39,12.6,28.39,28.09,0,6.08-1.93,11.86-5.58,16.73-.03.05-.07.1-.11.14l-.8,1.01-.08.09-21.82,27.28-21.74-27.19-.99-1.24-.04-.05c-3.67-4.87-5.62-10.67-5.62-16.77,0-15.49,12.74-28.09,28.39-28.09m0-6c-18.96,0-34.39,15.29-34.39,34.09,0,7.42,2.36,14.47,6.83,20.39l.05.06.05.06.05.06.99,1.24,21.74,27.18,4.69,5.86,4.69-5.86,21.69-27.12.1-.1.15-.18.72-.91c.13-.15.25-.31.36-.47,4.38-5.88,6.7-12.87,6.7-20.21,0-18.8-15.43-34.09-34.39-34.09h0Z"/>
          </g>
          <circle class="cls-4" cx="200.16" cy="220.49" r="12.51"/>
        </g>
      </g>
    </g>
  </g>
</svg>